<?xml version="1.0" encoding="utf-8"?>
<!-- Generated by IcoMoon.io -->
<svg version="1.1" xmlns="http://www.w3.org/2000/svg" xmlns:xlink="http://www.w3.org/1999/xlink" width="18" height="694" viewBox="0 0 18 694">
<svg id="icon-打印" width="12" height="12" viewBox="0 0 12 12" x="0" y="0">
<path fill="#61a7e5" d="M10.189 3.34h-8.378c-1.017 0-1.795 0.864-1.795 1.995v3.99h2.394v2.66h7.181v-2.66h2.394v-3.99c0-1.13-0.778-1.995-1.795-1.995v0zM8.394 10.654h-4.788v-3.324h4.788v3.324zM10.189 6c-0.359 0-0.598-0.266-0.598-0.665s0.239-0.665 0.598-0.665c0.359 0 0.598 0.266 0.598 0.665s-0.239 0.665-0.598 0.665v0zM9.591 0.016h-7.181v2.66h7.181v-2.66z"></path>
</svg>
<svg id="icon-发票" width="12" height="12" viewBox="0 0 12 12" x="0" y="22">
<path fill="#61a7e5" d="M11.293 12l-1.701-1.55-1.674 1.55h-0.216l-1.701-1.55-1.701 1.55h-0.216l-1.701-1.55-1.674 1.55h-0.702v-11.325c0-0.375 0.324-0.675 0.729-0.675h10.505c0.405 0 0.756 0.3 0.756 0.7v11.3h-0.702zM9.592 3.625c0-0.2-0.162-0.35-0.378-0.35h-6.427c-0.216 0-0.378 0.15-0.378 0.35v0.4c0 0.2 0.162 0.35 0.378 0.35h6.454c0.216 0 0.378-0.15 0.378-0.35v-0.4h-0.027zM9.592 6.9c0-0.2-0.162-0.35-0.378-0.35h-6.427c-0.216 0-0.378 0.15-0.378 0.35v0.4c0 0.2 0.162 0.35 0.378 0.35h6.454c0.216 0 0.378-0.15 0.378-0.35v-0.4h-0.027z"></path>
</svg>
<svg id="icon-反关闭" width="12" height="12" viewBox="0 0 12 12" x="0" y="44">
<path fill="#f86857" d="M9 5l-1 1 3.293 3.293c0.391 0.391 0.391 1.024 0 1.414v0l-0.586 0.586c-0.391 0.391-1.024 0.391-1.414 0v0l-3.293-3.293-3.293 3.293c-0.391 0.391-1.024 0.391-1.414 0v0l-0.586-0.586c-0.391-0.391-0.391-1.024 0-1.414l3.293-3.293-3.293-3.293c-0.391-0.391-0.391-1.024 0-1.414v0l0.586-0.586c0.391-0.391 1.024-0.391 1.414 0v0l3.293 3.293 1-1 2 2zM11 3l-2-2 0.293-0.293c0.391-0.391 1.024-0.391 1.414 0l0.586 0.586c0.391 0.391 0.391 1.024 0 1.414l-0.293 0.293zM6 0l6 6h-2l-5-5 1-1z"></path>
</svg>
<svg id="icon-反审核" width="12" height="12" viewBox="0 0 12 12" x="0" y="66">
<path fill="#14c896" d="M9.253 11.253l0.737 0.737h-9.468c-0.28 0-0.508-0.245-0.508-0.549v-0.188h9.238zM11.987 9.987l-2.209-2.209h1.702c0.28 0 0.508 0.251 0.508 0.56v1.649zM8.371 10.371l-8.356 0.013v-2.046c0-0.309 0.227-0.56 0.508-0.56h2.817c0.941-0.539 1.026-1.202 1.027-1.411l4.004 4.004zM3.275 1.275c0.576-0.728 1.521-1.217 2.6-1.264h0.253c1.777 0.077 3.19 1.355 3.19 2.92 0 0.689-0.274 1.323-0.733 1.823 0 0-0.509 0.565-0.781 1.050l-4.529-4.529zM12 12h-2l-10-10 1-1 11 11z"></path>
</svg>
<svg id="icon-反作废" width="12" height="12" viewBox="0 0 12 12" x="0" y="88">
<path fill="#f98239" d="M5.5 7.5h-1.589l-1.108-1.108-1.802 0.901v-4.293l3-3h6c0.552 0 1 0.448 1 1v4.996l-1.395 1.395-0.426-0.213-6.178-6.178-2 2 4.5 4.5zM11 9l-0.795-0.795 0.795-0.795v1.589zM10 12h-8c-0.552 0-1-0.448-1-1v-2.589l1.605-0.802 0.892 0.892h2l1.344 1.344 0.335-0.669 2.825 2.825z"></path>
<path fill="#f98239" d="M12 12l-11-11-1 1 10 10z"></path>
</svg>
<svg id="icon-复制" width="12" height="12" viewBox="0 0 12 12" x="0" y="110">
<path fill="#61a7e5" d="M10.499 0.004h-6.374c-0.819 0-1.499 0.679-1.499 1.497h7.113c0.42 0 0.759 0.329 0.759 0.748v7.485c0.819 0 1.499-0.679 1.499-1.497v-6.737c0-0.818-0.679-1.497-1.499-1.497zM8.321 6.072h-6.734v-0.749h6.744v0.749h-0.010v0zM8.321 8.318h-6.734v-0.749h6.744v0.749h-0.010zM0.758 2.26c-0.41 0-0.749 0.339-0.749 0.749v8.234c0 0.409 0.34 0.748 0.749 0.748h8.242c0.41 0 0.749-0.339 0.749-0.748v-8.244c0-0.409-0.34-0.749-0.749-0.749h-8.242v0.010z"></path>
</svg>
<svg id="icon-更多" width="12" height="12" viewBox="0 0 12 12" x="0" y="132">
<path fill="#61a7e5" d="M6 12c-3.314 0-6-2.686-6-6s2.686-6 6-6c3.314 0 6 2.686 6 6s-2.686 6-6 6zM3 7c0.552 0 1-0.448 1-1s-0.448-1-1-1c-0.552 0-1 0.448-1 1s0.448 1 1 1zM6 7c0.552 0 1-0.448 1-1s-0.448-1-1-1c-0.552 0-1 0.448-1 1s0.448 1 1 1zM9 7c0.552 0 1-0.448 1-1s-0.448-1-1-1c-0.552 0-1 0.448-1 1s0.448 1 1 1z"></path>
</svg>
<svg id="icon-关闭@2x" width="12" height="12" viewBox="0 0 12 12" x="0" y="154">
<path fill="#f86857" d="M4 6l-3.293 3.293c-0.391 0.391-0.391 1.024 0 1.414v0l0.586 0.586c0.391 0.391 1.024 0.391 1.414 0v0l3.293-3.293 3.293 3.293c0.391 0.391 1.024 0.391 1.414 0v0l0.586-0.586c0.391-0.391 0.391-1.024 0-1.414l-3.293-3.293 3.293-3.293c0.391-0.391 0.391-1.024 0-1.414v0l-0.586-0.586c-0.391-0.391-1.024-0.391-1.414 0v0l-3.293 3.293-3.293-3.293c-0.391-0.391-1.024-0.391-1.414 0l-0.586 0.586c-0.391 0.391-0.391 1.024 0 1.414l3.293 3.293z"></path>
</svg>
<svg id="icon-合并形状" width="12" height="12" viewBox="0 0 12 12" x="0" y="176">
<path fill="#f98239" d="M2 12c-0.552 0-1-0.448-1-1s0.448-1 1-1c0.552 0 1 0.448 1 1s-0.448 1-1 1zM11 12c-0.552 0-1-0.448-1-1s0.448-1 1-1c0.552 0 1 0.448 1 1s-0.448 1-1 1zM11.213 8.513c-0.054 0.376-0.291 0.492-0.449 0.487h-8.298c-0.178 0.004-0.378-0.135-0.431-0.548l-0.798-7.345c0 0-0.533 0-0.692 0-0.297 0-0.538-0.247-0.538-0.552s0.241-0.552 0.538-0.552c0.236 0 1.006 0 1.006 0 0.269 0 0.403 0.128 0.487 0.506l0.274 1.231h9.067c0.307 0 0.615 0.312 0.615 0.631l-0.78 6.143zM6.615 2.528l-2.173 2.232h1.251v3.135h1.844v-3.135h1.251l-2.173-2.232z"></path>
</svg>
<svg id="icon-禁用" width="12" height="12" viewBox="0 0 12 12" x="0" y="198">
<path fill="#f86857" d="M6 0c-3.314 0-6 2.686-6 6s2.686 6 6 6c3.314 0 6-2.686 6-6s-2.686-6-6-6zM3.879 9.536l-1.414-1.414 5.657-5.657 1.414 1.414-5.657 5.657z"></path>
</svg>
<svg id="icon-垃圾桶" width="12" height="12" viewBox="0 0 12 12" x="0" y="220">
<path fill="#f86857" d="M10.999 10.192c0-0.33 0-0.66 0-0.99 0-1.483 0-1.515 0-2.997 0-0.42 0-0.839 0-1.259 0-0.443 0.031-0.731-0.271-0.884-0.184-0.093-0.554-0.053-0.82-0.053-0.61 0-1.219 0-1.829 0-2.205 0-4.41 0-6.614 0-0.038 0.007-0.077 0.014-0.115 0.020-0.132 0.040-0.232 0.131-0.295 0.24-0.070 0.122-0.053 0.338-0.053 0.53 0 0.225 0 0.451 0 0.676 0 1.071 0 1.417 0 2.489 0 0.771 0 0.817 0 1.588 0 0.253 0 0.505 0 0.758 0 0.161-0.009 0.33 0.021 0.465 0.082 0.37 0.255 0.673 0.509 0.872 0.197 0.154 0.414 0.267 0.705 0.33 0.16 0.035 0.369 0.020 0.558 0.020 0.335 0 0.67 0 1.005 0 1.528 0 3.056 0 4.584 0 0.291 0 0.582 0 0.873 0 0.174 0 0.362 0.012 0.509-0.020 0.354-0.077 0.66-0.234 0.853-0.473 0.15-0.186 0.276-0.387 0.344-0.656 0.047-0.185 0.037-0.425 0.037-0.656zM4.866 9.822c0 0.401-0.346 0.726-0.772 0.726s-0.772-0.325-0.772-0.726v-3.628c0-0.401 0.346-0.726 0.772-0.726s0.772 0.325 0.772 0.726v3.628zM8.725 9.822c0 0.401-0.346 0.726-0.772 0.726s-0.772-0.325-0.772-0.726v-3.628c0-0.401 0.346-0.726 0.772-0.726s0.772 0.325 0.772 0.726v3.628zM11.292 1.503c0.39 0 0.705 0.335 0.705 0.748s-0.316 0.748-0.705 0.748h-10.579c-0.39 0-0.705-0.335-0.705-0.748s0.316-0.748 0.705-0.748h1.411c0-0.827 0.632-1.497 1.411-1.497h4.937c0.779 0 1.41 0.67 1.41 1.497h1.411z"></path>
</svg>
<svg id="icon-启动" width="12" height="12" viewBox="0 0 12 12" x="0" y="242">
  <path fill="#14C896" d="M6,12 C2.6862915,12 0,9.3137085 0,6 C0,2.6862915 2.6862915,0 6,0 C9.3137085,0 12,2.6862915 12,6 C12,9.3137085 9.3137085,12 6,12 Z M8.21074898,6.85750467 C8.35149858,6.77305491 8.46929638,6.65525711 8.55374615,6.5145075 C8.83789431,6.04092724 8.68432924,5.42666698 8.21074898,5.14251882 L5.52426138,3.53062627 C5.36884598,3.43737702 5.19100957,3.38811919 5.00976562,3.38811919 C4.45748088,3.38811919 4.00976562,3.83583444 4.00976562,4.38811919 L4.00976562,4.38811919 L4.00976562,7.61190431 C4.00976562,7.79314825 4.05902346,7.97098466 4.1522727,8.12640006 C4.43642086,8.59998033 5.05068111,8.75354539 5.52426138,8.46939723 L5.52426138,8.46939723 L8.21074898,6.85750467 Z"></path>
</svg>
<svg id="icon-设置" width="12" height="12" viewBox="0 0 12 12" x="0" y="264">
<path fill="#c8d2dc" d="M0.3 7c-0.126 0-0.232-0.093-0.248-0.217-0.069-0.526-0.069-1.039 0-1.565 0.017-0.124 0.122-0.217 0.248-0.217h0.602c0.115 0 0.216-0.078 0.243-0.19 0.121-0.494 0.317-0.966 0.58-1.401 0.060-0.099 0.044-0.225-0.037-0.306-0.142-0.142-0.284-0.284-0.426-0.426-0.089-0.089-0.098-0.23-0.022-0.329 0.323-0.421 0.686-0.784 1.107-1.107 0.1-0.076 0.24-0.067 0.329 0.022 0.142 0.142 0.284 0.284 0.426 0.426 0.081 0.081 0.208 0.097 0.306 0.037 0.435-0.264 0.907-0.46 1.401-0.58 0.112-0.028 0.19-0.128 0.19-0.243v-0.602c0-0.126 0.093-0.231 0.217-0.248 0.526-0.069 1.039-0.069 1.565 0 0.124 0.017 0.217 0.122 0.217 0.248v0.602c0 0.115 0.078 0.216 0.19 0.243 0.494 0.121 0.966 0.317 1.401 0.58 0.099 0.060 0.225 0.044 0.306-0.037 0.142-0.142 0.284-0.284 0.426-0.426 0.089-0.089 0.23-0.098 0.329-0.022 0.421 0.323 0.784 0.686 1.107 1.107 0.076 0.1 0.067 0.24-0.022 0.329-0.142 0.142-0.284 0.284-0.426 0.426-0.081 0.081-0.097 0.208-0.037 0.306 0.264 0.435 0.46 0.907 0.58 1.401 0.028 0.112 0.128 0.19 0.243 0.19h0.602c0.126 0 0.231 0.093 0.248 0.217 0.069 0.526 0.069 1.039 0 1.565-0.017 0.124-0.122 0.217-0.248 0.217h-0.602c-0.115 0-0.216 0.078-0.243 0.19-0.121 0.494-0.317 0.966-0.58 1.401-0.060 0.099-0.044 0.225 0.037 0.306 0.142 0.142 0.284 0.284 0.426 0.426 0.089 0.089 0.098 0.23 0.022 0.329-0.323 0.421-0.686 0.784-1.107 1.107-0.1 0.076-0.24 0.067-0.329-0.022-0.142-0.142-0.284-0.284-0.426-0.426-0.081-0.081-0.208-0.097-0.306-0.037-0.435 0.264-0.907 0.46-1.401 0.58-0.112 0.028-0.19 0.128-0.19 0.243v0.602c0 0.126-0.093 0.231-0.217 0.248-0.526 0.069-1.039 0.069-1.565 0-0.124-0.017-0.217-0.122-0.217-0.248v-0.602c0-0.115-0.078-0.216-0.19-0.243-0.494-0.121-0.966-0.317-1.401-0.58-0.099-0.060-0.225-0.044-0.306 0.037-0.142 0.142-0.284 0.284-0.426 0.426-0.089 0.089-0.23 0.098-0.329 0.022-0.421-0.323-0.784-0.686-1.107-1.107-0.076-0.1-0.067-0.24 0.022-0.329 0.142-0.142 0.284-0.284 0.426-0.426 0.081-0.081 0.097-0.208 0.037-0.306-0.264-0.435-0.46-0.907-0.58-1.401-0.028-0.112-0.128-0.19-0.243-0.19h-0.602zM5.999 3.001c-0.796 0-1.557 0.315-2.121 0.878s-0.878 1.325-0.878 2.121 0.315 1.557 0.878 2.121c0.564 0.563 1.325 0.878 2.121 0.878s1.557-0.315 2.121-0.878c0.563-0.564 0.878-1.325 0.878-2.121s-0.315-1.557-0.878-2.121c-0.564-0.563-1.325-0.878-2.121-0.878zM5.999 7c-0.552 0-1-0.448-1-1s0.448-1 1-1c0.552 0 1 0.448 1 1s-0.448 1-1 1z"></path>
</svg>
<svg id="icon-审核" width="12" height="12" viewBox="0 0 12 12" x="0" y="286">
<path fill="#14c896" d="M0.015 11.253v0.188c0 0.303 0.227 0.549 0.508 0.549h10.957c0.28 0 0.508-0.245 0.508-0.549v-0.188h-11.972zM11.987 8.338c0-0.309-0.227-0.56-0.508-0.56h-2.816c-1.132-0.648-1.025-1.476-1.025-1.476-0.044-0.448 0.946-1.547 0.946-1.547 0.459-0.5 0.733-1.134 0.733-1.823 0-1.565-1.413-2.843-3.19-2.92h-0.253c-1.777 0.077-3.19 1.355-3.19 2.92-0.001 0.663 0.257 1.306 0.733 1.823 0 0 0.99 1.099 0.946 1.547 0 0 0.107 0.828-1.025 1.476h-2.817c-0.28 0-0.508 0.251-0.508 0.56v2.046l11.972-0.018v-2.027zM5.816 7.78l0.185-0.003 0.185 0.003h-0.37z"></path>
</svg>
<svg id="icon-文件" width="10" height="12" viewBox="0 0 10 12" x="0" y="308">
<path fill="#f6c25a" d="M0.429 0h9.429c0.237 0 0.429 0.192 0.429 0.429v11.143c0 0.237-0.192 0.429-0.429 0.429h-9.429c-0.237 0-0.429-0.192-0.429-0.429v-11.143c0-0.237 0.192-0.429 0.429-0.429v0zM6 0v3.857c0 0.237 0.192 0.429 0.429 0.429h3.857v-4.286h-4.286zM6.857 0l3.429 3.429h-3.429v-3.429zM3 5.143c-0.237 0-0.429 0.192-0.429 0.429s0.192 0.429 0.429 0.429h4.286c0.237 0 0.429-0.192 0.429-0.429s-0.192-0.429-0.429-0.429h-4.286zM3 6.857c-0.237 0-0.429 0.192-0.429 0.429s0.192 0.429 0.429 0.429h4.286c0.237 0 0.429-0.192 0.429-0.429s-0.192-0.429-0.429-0.429h-4.286zM3 8.571c-0.237 0-0.429 0.192-0.429 0.429s0.192 0.429 0.429 0.429h4.286c0.237 0 0.429-0.192 0.429-0.429s-0.192-0.429-0.429-0.429h-4.286z"></path>
</svg>
<svg id="icon-文件夹" width="16" height="12" viewBox="0 0 16 12" x="0" y="330">
<path fill="#d8a43c" d="M1 0h5c1.105 0 2 0.895 2 2v0h-8v-1c0-0.552 0.448-1 1-1z"></path>
<path fill="#f6c25a" d="M0 2h15c0.552 0 1 0.448 1 1v8c0 0.552-0.448 1-1 1h-14c-0.552 0-1-0.448-1-1v-9z"></path>
</svg>
<svg id="icon-文件夹打开" width="18" height="12" viewBox="0 0 18 12" x="0" y="352">
<path fill="#d8a43c" d="M1 0h5c1.105 0 2 0.895 2 2v0h-8v-1c0-0.552 0.448-1 1-1v0zM0 2h15c0.552 0 1 0.448 1 1v8c0 0.552-0.448 1-1 1h-14c-0.552 0-1-0.448-1-1v-9z"></path>
<path fill="#f6c25a" d="M0.311 10.757l1.5-6c0.111-0.445 0.511-0.757 0.97-0.757h13.938c0.552 0 1 0.448 1 1 0 0.082-0.010 0.163-0.030 0.243l-1.5 6c-0.111 0.445-0.511 0.757-0.97 0.757h-13.938c-0.552 0-1-0.448-1-1 0-0.082 0.010-0.163 0.030-0.243z"></path>
</svg>
<svg id="icon-修改" width="12" height="12" viewBox="0 0 12 12" x="0" y="374">
<path fill="#f98239" d="M0.001 9.425v2.564h2.5l6.498-7.176-2.499-2.562-6.499 7.175zM10.999 2.763c0.247-0.252 0.247-0.773 0-1.026l-1.5-1.538c-0.248-0.252-0.752-0.252-1 0l-1.499 1.538 2.499 2.563 1.5-1.537zM5 10.963l-1 1.026h7.998v-1.026h-6.999z"></path>
</svg>
<svg id="icon-引入引出" width="12" height="12" viewBox="0 0 12 12" x="0" y="396">
<path fill="#61a7e5" d="M12 5h-11c-0.552 0-1-0.448-1-1s0.448-1 1-1v0h6v-3l5 5zM0 7h11c0.552 0 1 0.448 1 1s-0.448 1-1 1h-6v3l-5-5z"></path>
</svg>
<svg id="icon-作废" width="10" height="12" viewBox="0 0 10 12" x="0" y="418">
<path fill="#f98239" d="M10 5.996l-1.395 1.395-2.125-1.062-0.913 1.827-0.656-0.656h-2l-1.108-1.108-1.802 0.901v-4.293l3-3h6c0.552 0 1 0.448 1 1v4.996zM10 7.411v3.589c0 0.552-0.448 1-1 1h-8c-0.552 0-1-0.448-1-1v-2.589l1.605-0.802 0.892 0.892h2l1.344 1.344 1.087-2.173 1.875 0.938 1.198-1.198z"></path>
</svg>
<svg id="icon-修改灰" width="12" height="12" viewBox="0 0 12 12" x="0" y="440">
  <path fill="#AAB4BE" d="M0.001 9.425v2.564h2.5l6.498-7.176-2.499-2.562-6.499 7.175zM10.999 2.763c0.247-0.252 0.247-0.773 0-1.026l-1.5-1.538c-0.248-0.252-0.752-0.252-1 0l-1.499 1.538 2.499 2.563 1.5-1.537zM5 10.963l-1 1.026h7.998v-1.026h-6.999z"></path>
</svg>
<svg id="icon-垃圾桶橙" width="12" height="12" viewBox="0 0 12 12" x="0" y="462">
  <path fill="#AAB4BE" d="M10.999 10.192c0-0.33 0-0.66 0-0.99 0-1.483 0-1.515 0-2.997 0-0.42 0-0.839 0-1.259 0-0.443 0.031-0.731-0.271-0.884-0.184-0.093-0.554-0.053-0.82-0.053-0.61 0-1.219 0-1.829 0-2.205 0-4.41 0-6.614 0-0.038 0.007-0.077 0.014-0.115 0.020-0.132 0.040-0.232 0.131-0.295 0.24-0.070 0.122-0.053 0.338-0.053 0.53 0 0.225 0 0.451 0 0.676 0 1.071 0 1.417 0 2.489 0 0.771 0 0.817 0 1.588 0 0.253 0 0.505 0 0.758 0 0.161-0.009 0.33 0.021 0.465 0.082 0.37 0.255 0.673 0.509 0.872 0.197 0.154 0.414 0.267 0.705 0.33 0.16 0.035 0.369 0.020 0.558 0.020 0.335 0 0.67 0 1.005 0 1.528 0 3.056 0 4.584 0 0.291 0 0.582 0 0.873 0 0.174 0 0.362 0.012 0.509-0.020 0.354-0.077 0.66-0.234 0.853-0.473 0.15-0.186 0.276-0.387 0.344-0.656 0.047-0.185 0.037-0.425 0.037-0.656zM4.866 9.822c0 0.401-0.346 0.726-0.772 0.726s-0.772-0.325-0.772-0.726v-3.628c0-0.401 0.346-0.726 0.772-0.726s0.772 0.325 0.772 0.726v3.628zM8.725 9.822c0 0.401-0.346 0.726-0.772 0.726s-0.772-0.325-0.772-0.726v-3.628c0-0.401 0.346-0.726 0.772-0.726s0.772 0.325 0.772 0.726v3.628zM11.292 1.503c0.39 0 0.705 0.335 0.705 0.748s-0.316 0.748-0.705 0.748h-10.579c-0.39 0-0.705-0.335-0.705-0.748s0.316-0.748 0.705-0.748h1.411c0-0.827 0.632-1.497 1.411-1.497h4.937c0.779 0 1.41 0.67 1.41 1.497h1.411z"></path>
</svg>

<svg id="icon-下架" width="12" height="12" viewBox="0 0 12 12" x="0" y="484">
  <path fill="#F98239" d="M8.80351339,8.93818705 L6.39375,6.12530935 C6.213,5.9456259 6.213,5.65394245 6.39375,5.47345324 L8.03476339,5.42591367 L8.03476339,0.447942446 C8.03476339,0.203798561 8.235,0.00397122302 8.48026339,0.00397122302 L9.7815,0.00397122302 C10.02675,0.00397122302 10.227,0.203798561 10.227,0.447942446 L10.227,5.42589928 L11.865,5.47343885 C12.045,5.6531223 12.045,5.94480576 11.865,6.12529496 L9.45751339,8.93818705 C9.27675,9.11867626 8.98351339,9.11867626 8.80351339,8.93818705 Z M0.465,8.43541007 C0.20775,8.43541007 -8.8817842e-16,8.21139568 -8.8817842e-16,7.93585612 L-8.8817842e-16,7.37827338 C-8.8817842e-16,7.10269065 0.2085,6.8794964 0.465,6.8794964 L4.91026339,6.8794964 L5.36025,7.53457554 C5.51475,7.76099281 5.66625,7.98097842 5.81551339,8.19690647 L5.98125,8.43541007 L0.465,8.43541007 Z M0.465,1.86591123 C0.20775,1.86591123 0,1.64189684 0,1.36635727 L0,0.808774537 C0,0.533191803 0.2085,0.309997559 0.465,0.309997559 L5.9655,0.309997559 L5.9655,0.366400436 C5.9655,0.48808389 5.96626339,0.610544321 5.96701339,0.734630652 C5.9685,0.940098278 5.97076339,1.14717741 5.97375,1.35828533 C5.97675,1.52910547 5.979,1.69829972 5.9805,1.86591123 L0.465,1.86591123 Z M0.465,5.13324936 C0.20775,5.13324936 0,4.91005511 0,4.6336954 L0,4.63208389 L0,4.07611267 L0,4.07450116 C0,3.79891842 0.2085,3.57572418 0.465,3.57572418 L5.9655,3.57572418 L5.9655,3.63212705 C5.9655,3.75381051 5.96626339,3.8770767 5.96701339,4.00035727 C5.96776339,4.2058249 5.97001339,4.41370979 5.97375,4.62401195 C5.97675,4.79483209 5.979,4.96402634 5.9805,5.13163785 L3.69375,5.13163785 C3.69375,5.1324436 3.69375,5.1324436 3.6945,5.13324936 L0.465,5.13324936 Z M11.502,10.4409065 C11.7585,10.4409065 11.9670134,10.6641151 11.9670134,10.9396835 L11.9670134,11.4972662 C11.9670134,11.7728345 11.7592634,11.9960288 11.50275,11.9960288 L0.465,11.9960288 C0.20775,11.9960288 0,11.7728345 0,11.4972662 L0,10.9396835 C0,10.6641151 0.2085,10.4409065 0.465,10.4409065 L11.502,10.4409065 Z" id="Combined-Shape"></path>
</svg>

<svg id="icon-上架" width="12" height="12" viewBox="0 0 12 12" x="0" y="506">
  <path fill="#14C896" d="M8.80351339,0.139338129 C8.98351339,-0.0411510791 9.27675,-0.0411510791 9.45751339,0.139338129 L11.865,2.95223022 C12.045,3.13271942 12.045,3.42440288 11.865,3.60408633 L10.227,3.6516259 L10.227,8.62958273 C10.227,8.87372662 10.02675,9.07355396 9.7815,9.07355396 L8.48026339,9.07355396 C8.235,9.07355396 8.03476339,8.87372662 8.03476339,8.62958273 L8.03476339,3.65161151 L6.39375,3.60407194 C6.213,3.42358273 6.213,3.13189928 6.39375,2.95221583 L8.80351339,0.139338129 Z M0.465,5.46376978 C0.20775,5.46376978 0,5.2397554 0,4.96421583 L0,4.40663309 C0,4.13105036 0.2085,3.90785612 0.465,3.90785612 L5.9655,3.90785612 L5.9655,3.96425899 C5.9655,4.08594245 5.96626339,4.20840288 5.96701339,4.33248921 C5.9685,4.53795683 5.97076339,4.74503597 5.97375,4.95614388 C5.97675,5.12696403 5.979,5.29615827 5.9805,5.46376978 L0.465,5.46376978 Z M0.465,8.73110791 C0.20775,8.73110791 0,8.50791367 0,8.23155396 L0,8.22994245 L0,7.67397122 L0,7.67235971 C0,7.39677698 0.2085,7.17358273 0.465,7.17358273 L5.9655,7.17358273 L5.9655,7.22998561 C5.9655,7.35166906 5.96626339,7.47493525 5.96701339,7.59821583 C5.96776339,7.80368345 5.97001339,8.01156835 5.97375,8.2218705 C5.97675,8.39269065 5.979,8.56188489 5.9805,8.7294964 L3.69375,8.7294964 C3.69375,8.73030216 3.69375,8.73030216 3.6945,8.73110791 L0.465,8.73110791 Z M11.502,10.4409065 C11.7585,10.4409065 11.9670134,10.6641151 11.9670134,10.9396835 L11.9670134,11.4972662 C11.9670134,11.7728345 11.7592634,11.9960288 11.50275,11.9960288 L0.465,11.9960288 C0.20775,11.9960288 0,11.7728345 0,11.4972662 L0,10.9396835 C0,10.6641151 0.2085,10.4409065 0.465,10.4409065 L11.502,10.4409065 Z M0.465,0.642115108 L5.98125,0.642115108 L5.81551339,0.880618705 C5.66625,1.09654676 5.51475,1.31653237 5.36025,1.54294964 L4.91026339,2.19802878 L0.465,2.19802878 C0.2085,2.19802878 0,1.97483453 0,1.6992518 L0,1.14166906 C0,0.866129496 0.20775,0.642115108 0.465,0.642115108 Z" id="Combined-Shape"></path>
</svg>

<svg id="icon-商品授权" width="12" height="12" viewBox="0 0 12 12" x="0" y="528">
  <path fill="#14C896" d="M0.00654069767,0.00267857143 L6.00566746,0.624446042 L12.0065407,0.00267857143 L12.0065407,9.4176317 L6.09124453,12.0038628 L0.00654069767,9.36537107 L0.00654069767,0.00267857143 Z M5.17577756,8.38928571 L9.57505082,3.88392857 L8.79147523,3.08035714 L5.17577756,6.78214286 L3.21356826,4.77455357 L2.42999268,5.578125 L5.17577756,8.38928571 Z" id="Combined-Shape"></path>
</svg>
<svg id="icon-商品类目设置" width="12" height="12" viewBox="0 0 12 12" x="0" y="550">
  <path fill="#61A7E5" d="M11.4097339,9.87658463 C11.4203856,9.80168461 11.4270429,9.72553627 11.4270429,9.64564293 C11.4270429,9.56574959 11.4190542,9.49084957 11.4097339,9.41470122 L11.9383249,9.02646949 C11.9862576,8.99151615 11.9982408,8.92785114 11.9689486,8.87542113 L11.4669869,8.06400432 C11.4363632,8.01282265 11.36979,7.99409764 11.3138686,8.01282265 L10.6894122,8.24750936 C10.5589288,8.15388435 10.4191251,8.07648765 10.2660068,8.01656765 L10.1701415,7.39364921 C10.1621527,7.3374742 10.1102256,7.29503086 10.0476468,7.29503086 L9.04505489,7.29503086 C8.98247611,7.29503086 8.92921757,7.3374742 8.92256026,7.39364921 L8.82669489,8.01656765 C8.6735766,8.07523932 8.53377294,8.15513267 8.40328952,8.24750936 L7.77883317,8.01282265 C7.72158024,7.99160098 7.65633854,8.01282265 7.62571489,8.06400432 L7.12508464,8.87666946 C7.09312952,8.92785113 7.10777562,8.99151614 7.15570829,9.02771781 L7.68429928,9.41594956 C7.67364756,9.49084957 7.66699026,9.56824625 7.66699026,9.64689125 C7.66699026,9.72553626 7.67497903,9.80168461 7.68429928,9.87783297 L7.15570829,10.2660647 C7.1077756,10.301018 7.09579244,10.364683 7.12508464,10.4171131 L7.62704634,11.2310265 C7.65767,11.2822082 7.72424317,11.3009332 7.78016464,11.2822082 L8.40462099,11.0475215 C8.5351044,11.1411465 8.67490805,11.2185432 8.82802635,11.2784632 L8.92389171,11.9013817 C8.93188049,11.9575567 8.98380756,12 9.04638635,12 L10.0489783,12 C10.1115571,12 10.1648156,11.9575567 10.1714729,11.9013817 L10.2673383,11.2784632 C10.4204566,11.2197915 10.5602603,11.1398982 10.6907437,11.0475215 L11.3152,11.2822082 C11.372453,11.3034299 11.4376947,11.2822082 11.4683183,11.2310265 L11.97028,10.4171131 C12.0009037,10.3659314 11.987589,10.3022664 11.9396564,10.2660647 L11.4097339,9.87658463 L11.4097339,9.87658463 Z M9.5470166,10.4682947 C9.06369539,10.4682947 8.66958221,10.098788 8.66958221,9.64564293 C8.66958221,9.19249786 9.06369539,8.82299112 9.5470166,8.82299112 C10.0303378,8.82299112 10.424451,9.19249786 10.424451,9.64564293 C10.424451,10.098788 10.0303378,10.4682947 9.5470166,10.4682947 Z" id="Shape"></path>
  <path fill="#61A7E5" d="M9.63356172,6.73827409 C10.3552149,6.76948243 10.7932664,6.92427579 11.3751159,7.29503086 L11.387099,3.1106168 C11.387099,2.8871651 11.243301,2.52764504 11.0515703,2.34663666 L8.93853781,0.326832986 C8.71618342,0.13334129 8.4259244,0.0209912716 8.12235074,0.012252924 L0.961740466,0.012252924 C0.43448095,0.012252924 0.00308681021,0.416712999 0.00308681021,0.909804749 L0.00308681021,10.6992364 C0.00308681021,11.1923282 0.434480963,11.5955399 0.961740466,11.5955399 L7.19165782,11.5955399 C6.60315098,10.9364198 6.41008879,10.3147497 6.42340342,9.57199125 C6.45269562,8.05651432 7.84141196,6.70456909 9.60693246,6.73827409 L9.63356172,6.73827409 L9.63356172,6.73827409 Z M1.82586023,2.21181665 L6.10518366,2.21181665 C6.19439172,2.20931999 6.2822683,2.24177665 6.34484708,2.30169666 C6.40742585,2.36161667 6.44337537,2.44275835 6.44071244,2.5263967 C6.44071244,2.7049084 6.29691439,2.84097675 6.10518366,2.84097675 L1.82586023,2.84097675 C1.73665217,2.84347341 1.64877559,2.81101675 1.58619681,2.75109674 C1.52228657,2.69117673 1.48766851,2.61003505 1.48899998,2.5263967 C1.48633706,2.44275835 1.5209551,2.36036833 1.58486536,2.30169666 C1.6487756,2.24177665 1.73665219,2.20931998 1.82586023,2.21181665 L1.82586023,2.21181665 Z M1.82586023,4.00941695 L9.65752807,4.00941695 C9.84659587,4.00941695 9.99305684,4.14298864 9.99305684,4.32274867 C9.99305684,4.50126037 9.84792733,4.63732872 9.65752807,4.63732872 L1.82586023,4.63732872 C1.73665217,4.63982539 1.64877559,4.60736872 1.58619681,4.54744871 C1.52228657,4.4875287 1.48766851,4.40638703 1.48899998,4.32274867 C1.48633706,4.23911032 1.52228657,4.15796865 1.58619681,4.09804864 C1.65010705,4.03937697 1.73665217,4.00692029 1.82586023,4.00941695 L1.82586023,4.00941695 Z M1.48899998,6.11910065 C1.48899998,5.93934062 1.63279803,5.80576892 1.82586023,5.80576894 L7.54449561,5.80576894 C7.73755781,5.80576894 7.88135586,5.93809229 7.88135586,6.11910065 C7.88135586,6.29761235 7.73755781,6.4336807 7.54449561,6.43368071 L1.82586023,6.43368071 C1.73665217,6.43617737 1.64877559,6.40372071 1.58619681,6.34380069 C1.52228657,6.28388068 1.48766851,6.202739 1.48899998,6.11910065 Z" id="Shape"></path>
</svg>
<svg id="icon-变更" width="12" height="12" viewBox="0 0 12 12" x="0" y="572">
  <path fill="#F98239" d="M9.03608018,3.77122302 L9.03608018,5.20719424 C9.03608018,5.37410072 9.20712695,5.47913669 9.34342984,5.39568345 L11.8824053,2.90503597 C12.0187082,2.82158273 12.0187082,2.61294964 11.8824053,2.5294964 L9.34342984,0.0388489209 C9.20712695,-0.0446043165 9.03608018,0.0604316547 9.03608018,0.227338129 L9.03608018,1.16690647 C7.39510022,1.2676259 5.01781737,1.70935252 3.34743875,5.31079137 C2.16347439,7.86618705 0.11091314,7.92805755 0.0240534521,7.9294964 L0.038752784,7.9294964 L0.0120267261,10.5294964 L0.0240534521,10.5294964 C0.288641425,10.5294964 3.70289532,10.4489209 5.55501114,6.45323741 C6.58930958,4.22302158 7.81469933,3.8647482 9.03608018,3.77122302 Z M0.0240534521,3.7352518 C0.0975501114,3.73669065 1.58886414,3.78273381 2.76347439,5.36402878 C2.81291759,5.27194245 2.8610245,5.17841727 2.9064588,5.07913669 C3.28195991,4.2705036 3.6935412,3.61151079 4.12650334,3.07194245 C2.33051225,1.18417266 0.231180401,1.1352518 0.025389755,1.1352518 L0.013363029,1.1352518 L0.0400890869,3.73669065 L0.0240534521,3.73669065 L0.0240534521,3.7352518 Z M11.8837416,9.09640288 L9.34476615,6.60431655 C9.20846325,6.52086331 9.03741648,6.62589928 9.03741648,6.79280576 L9.03741648,7.89352518 C8.05389755,7.81726619 7.06770601,7.56978417 6.18173719,6.31223022 C6.12026726,6.42877698 6.05879733,6.55107914 5.9986637,6.68201439 C5.64187082,7.45035971 5.23296214,8.08201439 4.7986637,8.6028777 C6.22717149,10.1654676 7.83207127,10.4244604 9.03741648,10.4992806 L9.03741648,11.7741007 C9.03741648,11.9410072 9.20846325,12.0460432 9.34476615,11.9625899 L11.8837416,9.47194245 C12.0213808,9.38848921 12.0213808,9.17985612 11.8837416,9.09640288 L11.8837416,9.09640288 Z" id="Shape"></path>
</svg>
<svg id="icon-启用" width="12" height="12" viewBox="0 0 12 12" x="0" y="594">
  <path fill="#14C896" d="M5.73026184,0.604355821 L11.8202029,3.04838004 L6.00019569,5.37837205 L0.0301703784,3.02022275 L5.73026184,0.604355821 Z M6.36033438,5.8623679 L12,3.56008164 L12,8.7612792 L6.36033438,11.4043558 L6.36033438,5.8623679 Z M-3.57353036e-16,8.90308166 L-3.57353036e-16,3.67329138 L5.64012507,5.8623679 L5.64012507,11.4043558 L-3.57353036e-16,8.90308166 Z M4.3198243,6.32242291 L1.46992747,5.06057439 L1.46992747,6.48457094 L4.3198243,7.74641946 L4.3198243,6.32242291 Z M1.76992747,5.52149691 L4.0198243,6.51768349 L4.0198243,7.28549694 L1.76992747,6.28931036 L1.76992747,5.52149691 Z M8.96675492,9.3003252 L11.3167772,5.09945661 L10.8982035,4.70000076 L8.96675492,8.14790843 L7.9185737,7.14348006 L7.5,7.8964394 L8.96675492,9.3003252 Z" id="Combined-Shape"></path>
</svg>

<svg id="icon-禁用" width="12" height="12" viewBox="0 0 12 12" x="0" y="616">
  <path fill="#F86857" d="M5.73026184,0.604355821 L11.8202029,3.04838004 L6.00019569,5.37837205 L0.0301703784,3.02022275 L5.73026184,0.604355821 Z M6.36033438,5.8623679 L12,3.56008164 L12,8.7612792 L6.36033438,11.4043558 L6.36033438,5.8623679 Z M-3.57353036e-16,8.90308166 L-3.57353036e-16,3.67329138 L5.64012507,5.8623679 L5.64012507,11.4043558 L-3.57353036e-16,8.90308166 Z M4.3198243,6.32242291 L1.46992747,5.06057439 L1.46992747,6.48457094 L4.3198243,7.74641946 L4.3198243,6.32242291 Z M1.76992747,5.52149691 L4.0198243,6.51768349 L4.0198243,7.28549694 L1.76992747,6.28931036 L1.76992747,5.52149691 Z M8.61911076,7.56762719 L7.6357709,9.05402905 C7.45474303,9.33036705 7.45474303,9.66130743 7.6357709,9.7916855 C7.81679877,9.92122432 8.11030294,9.80098822 8.29133081,9.52465022 L9.27467067,8.03824835 L10.2580105,8.72354438 C10.4390384,8.84700491 10.7325426,8.72676881 10.9135704,8.4565091 C11.0945983,8.18708862 11.0945983,7.86982749 10.9135704,7.74636695 L9.93023057,7.06107093 L10.9135704,5.61594051 C11.0945983,5.35259833 11.0945983,5.0353372 10.9135704,4.90579837 C10.7325426,4.7754203 10.4390384,4.88197716 10.2580105,5.14531935 L9.27467067,6.59044976 L8.29133081,5.86388229 C8.11030294,5.72742593 7.81679877,5.83398279 7.6357709,6.10340327 C7.45474303,6.37366298 7.45474303,6.70460336 7.6357709,6.84105971 L8.61911076,7.56762719 Z" id="Combined-Shape"></path>
</svg>
<svg id="icon-出库" width="12" height="12" viewBox="0 0 12 12" x="0" y="638">
  <path fill="#61A7E5" d="M11.9358378,6.41151285 L9.98601351,1.2803933 L7.88478378,1.2803933 L7.88478378,1.67546816 L9.48851351,1.67546816 L10.8035541,6.36140782 L7.97756757,6.36140782 L5.96901351,8.2044067 L3.83691892,6.36142123 L1.0417973,6.36142123 L2.35654054,1.67548156 L3.99141892,1.67548156 L3.99141892,1.2804067 L1.92114865,1.2804067 L0.00536486486,6.48463911 L0.0161351351,6.48463911 C0.0092972973,6.50395978 0.00536486486,6.52462123 0.00536486486,6.54627486 L0.00536486486,11.811848 C0.00536486486,11.9139218 0.0883108108,11.9967285 0.190716216,11.9967285 L11.8092162,11.9967285 C11.911527,11.9967285 11.9945811,11.9139218 11.9945811,11.811848 L11.9945811,6.54628827 C11.9945676,6.49308603 11.9718784,6.44527374 11.9358243,6.41152626 L11.9358378,6.41151285 Z M6.90417568,2.3919419 L7.97587838,2.3919419 L5.93814865,0 L3.95708108,2.3919419 L5.02878378,2.3919419 L5.02878378,4.98265475 L6.90416216,4.98265475 L6.90416216,2.3919419 L6.90417568,2.3919419 Z M5.0287973,5.5805095 L6.90417568,5.5805095 L6.90417568,5.24835754 L5.0287973,5.24835754 L5.0287973,5.5805095 Z" id="Shape"></path>
</svg>

<svg id="icon-设为正式客户" width="12" height="12" viewBox="0 0 12 12" x="0" y="660">
  <path d="M11.356626,7.14337395 L9,9.5 L8,8.5 L7.5,9 L9,10.5 L11.7348714,7.76512857 C11.9051882,8.14173676 12,8.55979614 12,9 C12,10.6568542 10.6568542,12 9,12 C7.34314575,12 6,10.6568542 6,9 C6,7.34314575 7.34314575,6 9,6 C9.95582756,6 10.8072512,6.44700628 11.356626,7.14337395 Z M6.07802544,7.07262643 C5.71269476,7.62536753 5.5,8.28784501 5.5,9 C5.5,10.2731626 6.17979109,11.3875514 7.19620669,12 L0,12 C0,9.31628743 1.71947468,7.10218006 3.94087634,6.78033741 C2.30703293,6.51535367 1.0601251,5.10865703 1.0601251,3.41273569 C1.0601251,1.52792974 2.60022116,0 4.5000427,0 C6.39977881,0 7.93986064,1.5279156 7.93986064,3.41273569 C7.93986064,5.10858641 6.69295279,6.51535367 5.05916635,6.78033741 C5.41317694,6.83162967 5.75443912,6.93097861 6.07802544,7.07262643 Z" id="设为正式客户" fill="#61A7E5" fill-rule="nonzero"></path>
</svg>



<svg width="11px" height="12px" viewBox="0 0 11 12" version="1.1"  x="0" y="682">
    <g id="Page-1" stroke="none" stroke-width="1" fill="none" fill-rule="evenodd">
        <g id="Artboard-2" transform="translate(-58.000000, -37.000000)" fill="#61A7E5">
            <path d="M66.9932752,40 L67,40 C68.1045695,40 69,40.8954305 69,42 L69,47 C69,48.1045695 68.1045695,49 67,49 L60,49 C58.8954305,49 58,48.1045695 58,47 L58,42 C58,40.8954305 58.8954305,40 60,40 L60,40 L60.0067248,40 C60.1196428,38.3258541 61.6404707,37 63.5,37 C65.3595293,37 66.8803572,38.3258541 66.9932752,40 Z M61.0500091,40 L65.9499909,40 C65.7183558,38.8588798 64.709479,38 63.5,38 C62.290521,38 61.2816442,38.8588798 61.0500091,40 Z M63.5,47 C64.8807119,47 66,45.8807119 66,44.5 C66,43.1192881 64.8807119,42 63.5,42 C62.1192881,42 61,43.1192881 61,44.5 C61,45.8807119 62.1192881,47 63.5,47 Z M63,43 L64,43 L64,46 L63,46 L63,43 Z" id="Combined-Shape"></path>
        </g>
    </g>
</svg>
</svg>
