<?xml version="1.0" encoding="UTF-8"?>
<svg width="18px" height="12px" viewBox="0 0 18 12" version="1.1" xmlns="http://www.w3.org/2000/svg" xmlns:xlink="http://www.w3.org/1999/xlink">
    <!-- Generator: Sketch 44.1 (41455) - http://www.bohemiancoding.com/sketch -->
    <title>文件夹打开</title>
    <desc>Created with Sketch.</desc>
    <defs></defs>
    <g id="图" stroke="none" stroke-width="1" fill="none" fill-rule="evenodd">
        <g id="商品管理" transform="translate(-254.000000, -204.000000)">
            <g id="Group-5" transform="translate(232.000000, 148.000000)">
                <g id="Group-10" transform="translate(6.000000, 52.000000)">
                    <g id="文件夹打开" transform="translate(14.000000, 0.000000)">
                        <rect id="Rectangle-3" fill-opacity="0" fill="#C17B7B" x="0" y="0" width="20" height="20"></rect>
                        <g id="文件夹" transform="translate(2.000000, 4.000000)">
                            <path d="M1,1.35525272e-20 L6,1.35525272e-20 L6,4.4408921e-16 C7.1045695,2.41180773e-16 8,0.8954305 8,2 L8,2 L0,2 L0,1 L0,1 C-6.76353751e-17,0.44771525 0.44771525,1.01454218e-16 1,0 L1,1.35525272e-20 Z M0,2 L15,2 C15.5522847,2 16,2.44771525 16,3 L16,11 C16,11.5522847 15.5522847,12 15,12 L1,12 L1,12 C0.44771525,12 6.76353751e-17,11.5522847 0,11 L0,2 Z" id="Combined-Shape" fill="#D8A43C"></path>
                            <path d="M0.310633906,10.7574644 L1.81063391,4.75746437 L1.81063391,4.75746437 C1.92192566,4.31229737 2.32190876,4 2.78077641,4 L16.7192236,4 L16.7192236,4 C17.2715083,4 17.7192236,4.44771525 17.7192236,5 C17.7192236,5.08176181 17.7091962,5.16321502 17.6893661,5.24253563 L16.1893661,11.2425356 L16.1893661,11.2425356 C16.0780743,11.6877026 15.6780912,12 15.2192236,12 L1.28077641,12 L1.28077641,12 C0.728491657,12 0.280776406,11.5522847 0.280776406,11 C0.280776406,10.9182382 0.290803755,10.836785 0.310633906,10.7574644 Z" id="Path-24" fill="#F6C25A"></path>
                        </g>
                    </g>
                </g>
            </g>
        </g>
    </g>
</svg>