<?xml version="1.0" encoding="utf-8"?>
<!-- Generated by IcoMoon.io -->
<!DOCTYPE svg PUBLIC "-//W3C//DTD SVG 1.1//EN" "http://www.w3.org/Graphics/SVG/1.1/DTD/svg11.dtd">
<svg version="1.1" xmlns="http://www.w3.org/2000/svg" xmlns:xlink="http://www.w3.org/1999/xlink" width="16" height="250" viewBox="0 0 16 250">
<svg id="icon-add" width="16" height="16" viewBox="0 0 16 16" x="0" y="0">
<path fill="#61a7e5" d="M14.125 9.021h-5.104v5.104h-2.042v-5.104h-5.104v-2.042h5.104v-5.104h2.042v5.104h5.104v2.042z"></path>
</svg>
<svg id="icon-close" width="16" height="16" viewBox="0 0 16 16" x="0" y="26">
<path fill="#8c96a0" d="M12.030 11.023l-1.008 1.008-3.022-3.023-3.022 3.023-1.008-1.008 3.022-3.023-3.022-3.022 1.008-1.008 3.022 3.022 3.022-3.022 1.008 1.008-3.022 3.022 3.023 3.023z"></path>
</svg>
<svg id="icon-home" width="16" height="16" viewBox="0 0 16 16" x="0" y="52">
<path fill="#fff" d="M10.765 6.123c-0.296-0.296-0.593-0.494-0.79-0.79l-0.593-0.593c-0.198-0.099-0.296-0.198-0.296-0.198-0.296-0.296-0.593-0.395-0.988-0.395s-0.691 0.099-0.988 0.395c0 0-0.099 0.099-0.296 0.296s-0.395 0.296-0.593 0.593c-0.198 0.198-0.494 0.494-0.79 0.691-0.296 0.296-0.593 0.494-0.889 0.79-0.691 0.593-1.481 1.383-2.37 2.173v6.123c0 0.296 0.099 0.494 0.296 0.593s0.395 0.198 0.691 0.198h3.062c0 0 0-0.099 0-0.099v-2.667c0-0.889 0.691-1.58 1.58-1.58h0.593c0.889 0 1.58 0.691 1.58 1.58v2.667c0 0 0 0.099 0 0.099h3.062c0.296 0 0.494-0.099 0.691-0.296s0.296-0.395 0.296-0.593v-6.024c-0.889-0.79-1.679-1.58-2.37-2.173-0.296-0.296-0.593-0.593-0.889-0.79zM15.604 6.815l-0.395-0.395c-0.198-0.198-0.494-0.395-0.691-0.691-0.296-0.296-0.593-0.593-0.988-0.988s-0.691-0.691-1.086-1.086c-0.395-0.395-0.691-0.691-1.086-1.086s-0.691-0.691-0.988-0.988c-0.296-0.296-0.494-0.494-0.691-0.691s-0.296-0.296-0.395-0.395c-0.296-0.296-0.691-0.494-1.185-0.494s-0.889 0.198-1.284 0.593c-0.099 0.099-0.198 0.198-0.593 0.494-0.296 0.296-0.691 0.691-1.185 1.086s-0.889 0.889-1.481 1.383c-0.494 0.494-0.988 0.889-1.481 1.383-0.494 0.395-0.79 0.79-1.185 1.086-0.296 0.296-0.494 0.494-0.593 0.593-0.198 0.198-0.296 0.395-0.296 0.593 0 0.296 0.099 0.494 0.296 0.691s0.395 0.296 0.691 0.198c0.296 0 0.494-0.099 0.593-0.198 0.099 0 0.198-0.198 0.494-0.395s0.593-0.494 0.889-0.889c0.395-0.296 0.79-0.691 1.185-1.086s0.79-0.79 1.185-1.086c0.395-0.395 0.691-0.691 0.988-0.988s0.494-0.494 0.593-0.593 0.593-0.395 0.988-0.395c0.296 0 0.691 0.099 0.988 0.395 0.099 0.099 0.198 0.198 0.494 0.494s0.593 0.593 0.988 0.889c0.395 0.395 0.79 0.691 1.185 1.185 0.395 0.395 0.79 0.79 1.185 1.185s0.691 0.691 0.988 0.889c0.296 0.296 0.395 0.395 0.494 0.395 0.198 0.099 0.395 0.198 0.593 0.198 0.296 0 0.494-0.099 0.691-0.296s0.296-0.395 0.296-0.593c0.198 0 0.099-0.198-0.198-0.395z"></path>
</svg>
<svg id="icon-scale" width="16" height="16" viewBox="0 0 16 16" x="0" y="78">
<path fill="#8c96a0" d="M12.625 12.625h-9.25c-0.925 0-1.542-0.617-1.542-1.542v-6.167c0-0.925 0.617-1.542 1.542-1.542h9.25c0.925 0 1.542 0.617 1.542 1.542v6.167c0 0.925-0.617 1.542-1.542 1.542zM11.083 4.917h-6.167v6.167h6.167v-6.167z"></path>
</svg>
<svg id="icon-search" width="16" height="16" viewBox="0 0 16 16" x="0" y="104">
<path fill="#8c96a0" d="M13.75 12.792l-0.958 0.958-2.108-2.108c-0.863 0.671-2.013 1.15-3.162 1.15-2.875 0-5.271-2.396-5.271-5.271s2.396-5.271 5.271-5.271 5.271 2.396 5.271 5.271c0 1.246-0.383 2.3-1.15 3.163l2.108 2.108zM11.833 7.521c0-2.396-1.917-4.313-4.313-4.313s-4.313 1.917-4.313 4.313 1.917 4.312 4.313 4.312c0.958 0 1.821-0.287 2.492-0.863l-0.096-0.096 0.958-0.958 0.096 0.096c0.575-0.671 0.863-1.533 0.863-2.492z"></path>
</svg>
<svg id="icon-xiala" width="16" height="16" viewBox="0 0 16 16" x="0" y="130">
<path fill="#8c96a0" d="M8 8.436l-1.454-1.357-4.264-3.973 1.454-1.357 4.264 3.973 4.264-3.973 1.454 1.357-5.717 5.33zM8 11.44l4.264-3.973 1.454 1.357-4.264 4.070-1.454 1.357-1.454-1.357-4.264-3.973 1.454-1.357 4.264 3.876z"></path>
</svg>
<svg id="icon-close" width="16" height="16" viewBox="0 0 16 16" x="0" y="156">
    <path fill="#ffffff" d="M12.030 11.023l-1.008 1.008-3.022-3.023-3.022 3.023-1.008-1.008 3.022-3.023-3.022-3.022 1.008-1.008 3.022 3.022 3.022-3.022 1.008 1.008-3.022 3.022 3.023 3.023z"></path>
</svg>
<svg id="icon-search" width="16" height="16" viewBox="0 0 16 16" x="0" y="182">
    <path fill="#61a7e5" d="M13.75 12.792l-0.958 0.958-2.108-2.108c-0.863 0.671-2.013 1.15-3.162 1.15-2.875 0-5.271-2.396-5.271-5.271s2.396-5.271 5.271-5.271 5.271 2.396 5.271 5.271c0 1.246-0.383 2.3-1.15 3.163l2.108 2.108zM11.833 7.521c0-2.396-1.917-4.313-4.313-4.313s-4.313 1.917-4.313 4.313 1.917 4.312 4.313 4.312c0.958 0 1.821-0.287 2.492-0.863l-0.096-0.096 0.958-0.958 0.096 0.096c0.575-0.671 0.863-1.533 0.863-2.492z"></path>
</svg>
<svg id="icon-search" width="16" height="16" viewBox="0 0 16 16" x="0" y="208">
    <path fill="#fff" d="M13.75 12.792l-0.958 0.958-2.108-2.108c-0.863 0.671-2.013 1.15-3.162 1.15-2.875 0-5.271-2.396-5.271-5.271s2.396-5.271 5.271-5.271 5.271 2.396 5.271 5.271c0 1.246-0.383 2.3-1.15 3.163l2.108 2.108zM11.833 7.521c0-2.396-1.917-4.313-4.313-4.313s-4.313 1.917-4.313 4.313 1.917 4.312 4.313 4.312c0.958 0 1.821-0.287 2.492-0.863l-0.096-0.096 0.958-0.958 0.096 0.096c0.575-0.671 0.863-1.533 0.863-2.492z"></path>
</svg>
<svg id="icon-homeblue" width="16" height="16" viewBox="0 0 16 16" x="0" y="234">
  <path fill="#61a7e5" d="M10.765 6.123c-0.296-0.296-0.593-0.494-0.79-0.79l-0.593-0.593c-0.198-0.099-0.296-0.198-0.296-0.198-0.296-0.296-0.593-0.395-0.988-0.395s-0.691 0.099-0.988 0.395c0 0-0.099 0.099-0.296 0.296s-0.395 0.296-0.593 0.593c-0.198 0.198-0.494 0.494-0.79 0.691-0.296 0.296-0.593 0.494-0.889 0.79-0.691 0.593-1.481 1.383-2.37 2.173v6.123c0 0.296 0.099 0.494 0.296 0.593s0.395 0.198 0.691 0.198h3.062c0 0 0-0.099 0-0.099v-2.667c0-0.889 0.691-1.58 1.58-1.58h0.593c0.889 0 1.58 0.691 1.58 1.58v2.667c0 0 0 0.099 0 0.099h3.062c0.296 0 0.494-0.099 0.691-0.296s0.296-0.395 0.296-0.593v-6.024c-0.889-0.79-1.679-1.58-2.37-2.173-0.296-0.296-0.593-0.593-0.889-0.79zM15.604 6.815l-0.395-0.395c-0.198-0.198-0.494-0.395-0.691-0.691-0.296-0.296-0.593-0.593-0.988-0.988s-0.691-0.691-1.086-1.086c-0.395-0.395-0.691-0.691-1.086-1.086s-0.691-0.691-0.988-0.988c-0.296-0.296-0.494-0.494-0.691-0.691s-0.296-0.296-0.395-0.395c-0.296-0.296-0.691-0.494-1.185-0.494s-0.889 0.198-1.284 0.593c-0.099 0.099-0.198 0.198-0.593 0.494-0.296 0.296-0.691 0.691-1.185 1.086s-0.889 0.889-1.481 1.383c-0.494 0.494-0.988 0.889-1.481 1.383-0.494 0.395-0.79 0.79-1.185 1.086-0.296 0.296-0.494 0.494-0.593 0.593-0.198 0.198-0.296 0.395-0.296 0.593 0 0.296 0.099 0.494 0.296 0.691s0.395 0.296 0.691 0.198c0.296 0 0.494-0.099 0.593-0.198 0.099 0 0.198-0.198 0.494-0.395s0.593-0.494 0.889-0.889c0.395-0.296 0.79-0.691 1.185-1.086s0.79-0.79 1.185-1.086c0.395-0.395 0.691-0.691 0.988-0.988s0.494-0.494 0.593-0.593 0.593-0.395 0.988-0.395c0.296 0 0.691 0.099 0.988 0.395 0.099 0.099 0.198 0.198 0.494 0.494s0.593 0.593 0.988 0.889c0.395 0.395 0.79 0.691 1.185 1.185 0.395 0.395 0.79 0.79 1.185 1.185s0.691 0.691 0.988 0.889c0.296 0.296 0.395 0.395 0.494 0.395 0.198 0.099 0.395 0.198 0.593 0.198 0.296 0 0.494-0.099 0.691-0.296s0.296-0.395 0.296-0.593c0.198 0 0.099-0.198-0.198-0.395z"></path>
</svg>
</svg>
